# xmcd
#
# Track frame offsets:
#	150
#	17640
#	32840
#	49697
#	65547
#	80520
#	93755
#	108792
#	124980
#	137457
#	154500
#	171830
#	187455
#	203870
#
# Disc length: 2899 seconds
#
# Revision: 4
# Processed by: cddbd v1.5.2PL0 Copyright (c) Steve Scherf et al.
# Submitted via: audiograbber 1.83.01
#
DISCID=b80b510e
DTITLE=Various Artist - Hot Hits Country Vol. 16
DYEAR=1994
DGENRE=Country
TTITLE0=Tractors - Baby Likes To Rock It
TTITLE1=Mark Collie - Hard Lovin' Women
TTITLE2=Little Texas - Kick A Little
TTITLE3=Travis Tritt - Ten Feet Tall And Bulletproof
TTITLE4=Mavericks - There Goes My Heart
TTITLE5=Archer and Park - Where There's Smoke
TTITLE6=John and Audrey Wiggins - Has Any Body Seen Amy
TTITLE7=Neal McCoy - The City Put The Country Back In Me
TTITLE8=Pam Tillis - When You Walk In The Room
TTITLE9=Kathy Mattea - Nobody's Gonna Rain On Our Parade
TTITLE10=Alan Jackson - Livin On Love
TTITLE11=Brooks and Dunn - She's Not The Cheatin' Kind
TTITLE12=Tracy Lawrence - I See It Now
TTITLE13=Jeff Foxworthy - Redneck Stomp (Novelty)
EXTD=
EXTT0=
EXTT1=
EXTT2=
EXTT3=
EXTT4=
EXTT5=
EXTT6=
EXTT7=
EXTT8=
EXTT9=
EXTT10=
EXTT11=
EXTT12=
EXTT13=
PLAYORDER=
